# xmcd CD database file
#
# Track frame offsets:
#	150
#	5433
#	14352
#	20073
#	28592
#	36466
#	43017
#	50098
#
# Disc length: 837 seconds
#
# Revision: 0
# Processed by: cddbd v1.5.2PL0 Copyright (c) Steve Scherf et al.
# Submitted via: CDex 1.70beta2
#
DISCID=65034308
DTITLE=ザ・CD - 日本の童謡傑作選　第2巻
DYEAR=1900
DGENRE=Country
TTITLE0=シャボン玉
TTITLE1=雨ふり
TTITLE2=十五夜お月さん
TTITLE3=赤い帽子白い帽子
TTITLE4=みどりのそよ風
TTITLE5=証城寺の狸囃子
TTITLE6=七つの子
TTITLE7=春の唄
EXTD=
EXTT0=
EXTT1=
EXTT2=
EXTT3=
EXTT4=
EXTT5=
EXTT6=
EXTT7=
PLAYORDER=
